<?xml version="1.0" standalone="no"?>
<!DOCTYPE svg PUBLIC "-//W3C//DTD SVG 20010904//EN"
 "http://www.w3.org/TR/2001/REC-SVG-20010904/DTD/svg10.dtd">
<svg version="1.0" xmlns="http://www.w3.org/2000/svg"
 width="2305.000000pt" height="2305.000000pt" viewBox="0 0 2305.000000 2305.000000"
 preserveAspectRatio="xMidYMid meet">
<metadata>
Created by potrace 1.11, written by Peter Selinger 2001-2013
</metadata>
<g transform="translate(0.000000,2305.000000) scale(0.100000,-0.100000)"
fill="#000000" stroke="none">
<path d="M3326 14512 c-2 -1 -484 -5 -1072 -7 -1080 -5 -1291 -8 -1346 -20
-81 -18 -143 -59 -200 -133 -121 -158 -136 -312 -43 -467 44 -73 98 -131 145
-154 93 -48 108 -49 650 -57 658 -9 1602 -10 1702 -2 l77 6 6 -41 c10 -65 10
-572 1 -767 -16 -322 -11 -867 9 -1025 2 -16 7 -64 11 -105 3 -41 8 -84 10
-94 2 -11 6 -42 9 -70 3 -28 7 -62 10 -76 3 -14 7 -45 10 -70 3 -25 8 -63 11
-85 3 -22 7 -54 9 -72 2 -17 7 -69 11 -115 3 -45 8 -94 10 -108 9 -51 11 -597
4 -660 -5 -36 -11 -92 -15 -125 -39 -359 -162 -678 -365 -950 -149 -198 -238
-250 -440 -253 -92 -2 -144 5 -267 33 -28 7 -163 57 -223 83 -260 113 -523
288 -708 470 -189 186 -231 306 -218 620 12 294 12 336 -1 399 -27 133 -94
219 -223 290 -116 64 -267 53 -385 -28 -101 -69 -149 -139 -178 -259 -27 -109
-28 -127 -32 -375 -6 -350 22 -503 134 -735 142 -296 328 -523 644 -787 15
-13 75 -56 134 -96 358 -244 753 -392 1123 -422 107 -9 329 -3 397 10 15 3 44
8 63 11 62 11 203 54 275 86 226 98 482 328 663 595 94 138 213 387 276 577
73 218 134 532 152 781 11 151 6 440 -11 645 -2 25 -6 81 -10 125 -4 44 -8 91
-10 105 -2 14 -6 48 -10 75 -3 28 -7 66 -10 85 -3 19 -7 62 -11 95 -3 33 -7
71 -10 85 -2 14 -6 63 -10 110 -3 47 -7 96 -10 110 -18 115 -24 770 -9 1035
11 193 13 835 3 994 -19 285 -82 482 -195 611 -46 51 -101 85 -178 110 -34 11
-350 22 -359 12z"/>
<path d="M18709 13227 c-141 -48 -252 -188 -273 -342 -3 -22 -8 -85 -11 -140
-12 -199 -15 -251 -20 -300 -2 -27 -7 -93 -11 -145 -9 -139 -11 -177 -18 -255
-3 -38 -8 -104 -11 -145 -3 -41 -8 -100 -10 -130 -2 -30 -7 -102 -10 -160 -3
-58 -8 -134 -10 -170 -2 -36 -7 -105 -10 -155 -3 -49 -8 -119 -10 -155 -2 -36
-7 -105 -10 -155 -3 -49 -7 -115 -10 -145 -2 -30 -7 -95 -10 -145 -3 -49 -8
-115 -10 -145 -2 -30 -7 -104 -10 -165 -3 -60 -8 -144 -10 -185 -22 -395 -27
-970 -9 -1083 27 -170 122 -292 271 -349 116 -44 330 9 425 107 48 50 79 118
117 255 17 63 35 129 40 145 6 17 48 185 96 375 88 354 112 447 172 655 19 66
48 165 63 220 16 55 56 181 90 280 173 505 253 639 550 933 285 282 543 442
785 487 275 51 388 -38 441 -348 10 -62 13 -156 10 -387 -3 -168 -7 -327 -10
-355 -3 -27 -8 -84 -11 -125 -5 -71 -12 -135 -20 -190 -2 -14 -7 -61 -11 -105
-4 -44 -8 -93 -10 -110 -22 -232 -22 -768 1 -884 2 -11 6 -48 10 -83 3 -35 15
-107 26 -161 68 -339 225 -587 433 -687 101 -48 153 -59 287 -59 235 0 557
108 690 231 86 78 142 198 142 303 0 70 -10 109 -46 183 -57 118 -148 187
-277 211 -67 12 -229 7 -257 -7 -11 -6 -22 -9 -25 -7 -2 2 -34 -10 -70 -28
l-66 -32 -5 30 c-6 38 -1 491 7 605 6 95 13 224 22 440 3 80 7 172 9 205 20
428 24 816 11 1018 -4 65 -9 124 -11 130 -2 7 -6 35 -9 63 -8 80 -45 252 -72
334 -48 144 -149 309 -238 390 -22 19 -44 40 -50 45 -26 24 -155 103 -196 120
-143 57 -252 77 -456 80 -465 8 -860 -135 -1297 -468 -166 -126 -389 -331
-544 -502 l-63 -68 5 54 c3 30 7 72 9 94 2 22 7 81 11 130 4 50 9 108 11 130
3 22 7 139 9 260 5 180 3 231 -10 280 -61 233 -298 360 -526 282z"/>
<path d="M15145 13065 c-343 -48 -628 -165 -892 -367 -326 -250 -600 -618
-761 -1023 -39 -98 -106 -298 -116 -346 -3 -13 -14 -67 -26 -119 -28 -128 -50
-278 -67 -450 -15 -154 -8 -597 11 -696 3 -12 7 -39 10 -60 85 -556 393 -1040
830 -1303 164 -100 377 -183 551 -217 181 -35 184 -35 385 -39 256 -4 439 21
650 92 175 59 310 128 500 256 201 135 402 322 542 503 13 16 26 34 31 39 76
93 212 314 282 456 114 232 225 576 251 774 3 28 8 52 9 55 10 17 20 200 20
365 -1 169 -7 277 -20 340 -2 11 -7 43 -10 70 -13 104 -58 295 -101 425 -134
403 -359 700 -599 790 -102 38 -278 40 -397 4 -13 -4 -18 0 -18 14 0 65 -105
210 -210 292 -84 65 -220 117 -375 144 -100 17 -359 18 -480 1z m351 -834 c38
-11 98 -32 134 -47 98 -41 191 -52 275 -31 38 9 69 16 69 15 41 -104 118 -199
222 -273 146 -104 241 -265 288 -485 22 -103 25 -118 32 -170 3 -25 7 -47 9
-50 5 -9 18 -202 18 -270 1 -514 -279 -1078 -693 -1397 -242 -186 -471 -266
-755 -265 -112 0 -164 5 -270 26 -99 19 -246 86 -336 151 -54 40 -145 136
-187 198 -67 96 -140 272 -156 372 -4 21 -8 40 -10 44 -2 3 -7 26 -10 51 -3
25 -8 56 -10 70 -24 142 -24 421 0 543 2 12 6 39 10 62 3 22 10 60 16 85 5 25
11 52 13 60 38 180 127 435 206 592 231 462 517 702 869 734 36 4 66 7 68 9 9
8 140 -8 198 -24z"/>
<path d="M11697 13014 c-1 -1 -40 -4 -87 -8 -385 -28 -773 -272 -954 -598 -35
-63 -101 -228 -91 -228 2 0 0 -11 -5 -24 -22 -58 -31 -224 -18 -345 15 -144
48 -261 121 -431 127 -294 231 -400 602 -619 156 -92 298 -194 345 -247 45
-52 58 -88 76 -224 16 -116 3 -212 -37 -294 -104 -206 -405 -373 -869 -483
-225 -53 -226 -53 -605 -79 -149 -10 -242 -45 -331 -126 -59 -55 -108 -143
-123 -220 -34 -186 76 -379 256 -449 63 -24 150 -29 278 -15 39 4 90 9 115 12
25 3 60 7 78 9 18 3 54 8 80 11 395 46 802 150 1073 272 24 11 60 27 79 35
129 54 332 194 458 316 195 188 292 349 343 566 12 55 13 60 27 155 10 70 9
330 -2 395 -48 284 -176 547 -355 725 -139 139 -173 162 -377 263 -166 81
-231 125 -295 196 -79 88 -110 172 -115 311 -3 90 10 146 43 182 55 62 191
106 326 106 74 0 75 -1 128 -44 107 -88 190 -122 299 -122 275 0 454 266 358
533 -35 99 -64 144 -139 217 -165 161 -362 240 -627 252 -29 1 -54 1 -55 0z"/>
<path d="M7577 12924 c-1 -1 -56 -5 -122 -9 -66 -3 -122 -8 -125 -10 -3 -1
-32 -6 -65 -9 -103 -12 -305 -57 -435 -97 -306 -93 -598 -247 -838 -441 -79
-64 -287 -266 -338 -329 -264 -324 -444 -688 -548 -1104 -27 -109 -52 -234
-61 -305 -3 -25 -8 -56 -10 -70 -3 -23 -12 -115 -21 -220 -6 -67 -6 -479 0
-520 3 -19 8 -69 10 -110 5 -76 7 -90 25 -215 20 -131 37 -205 78 -330 127
-393 372 -578 763 -577 115 0 215 6 265 17 11 2 37 7 57 10 20 2 83 16 140 29
384 91 768 283 1128 566 236 185 474 428 617 629 l33 46 1 -30 c0 -30 2 -49
13 -160 9 -92 14 -121 41 -280 28 -167 104 -352 196 -476 126 -170 341 -323
499 -354 155 -30 338 -38 435 -20 86 16 143 45 201 101 103 100 142 212 117
339 -15 79 -51 158 -100 214 -59 70 -182 134 -280 146 -72 9 -109 21 -158 49
-76 45 -107 112 -131 286 -3 25 -8 54 -10 65 -22 118 -22 583 0 820 2 22 7 74
11 115 3 41 8 95 10 120 2 25 7 79 10 120 4 41 9 93 11 115 1 22 6 76 9 120 4
44 8 96 10 115 2 19 6 73 10 120 4 47 9 96 11 110 3 14 6 131 9 260 4 252 0
290 -48 393 -33 72 -107 151 -170 182 -66 32 -83 36 -182 40 -132 5 -233 -31
-310 -112 -71 -73 -101 -147 -141 -344 -56 -274 -154 -544 -317 -879 -112
-230 -200 -386 -345 -610 -162 -249 -310 -413 -522 -575 -36 -28 -71 -56 -78
-63 -71 -66 -329 -221 -462 -277 -47 -20 -94 -40 -105 -45 -36 -16 -152 -49
-217 -61 -74 -14 -230 -20 -246 -10 -6 3 -13 29 -16 56 -3 28 -11 93 -16 145
-21 183 -24 237 -24 465 -1 202 8 407 18 424 2 3 7 29 11 56 24 185 100 435
189 620 228 478 625 787 1136 886 95 19 150 23 320 23 202 1 206 1 266 -26
133 -60 306 -34 402 61 46 46 96 138 116 215 19 74 14 221 -9 286 -58 163
-206 263 -435 296 -41 6 -277 13 -283 8z"/>
</g>
</svg>
